<svg xmlns="http://www.w3.org/2000/svg" viewBox="0 0 100 100" fill="none">
  <rect width="100" height="100" rx="16" fill="#0d1520"/>
  <defs>
    <linearGradient id="ds" x1="50" y1="4" x2="50" y2="96" gradientUnits="userSpaceOnUse">
      <stop offset="0%"   stop-color="#4ade80"/>
      <stop offset="100%" stop-color="#38bdf8"/>
    </linearGradient>
    <linearGradient id="b1" x1="0" y1="0" x2="0" y2="1" gradientUnits="objectBoundingBox">
      <stop offset="0%"   stop-color="#4ade80"/>
      <stop offset="100%" stop-color="#22c55e"/>
    </linearGradient>
    <linearGradient id="b2" x1="0" y1="0" x2="0" y2="1" gradientUnits="objectBoundingBox">
      <stop offset="0%"   stop-color="#38bdf8"/>
      <stop offset="100%" stop-color="#22c55e"/>
    </linearGradient>
    <linearGradient id="b3" x1="0" y1="0" x2="0" y2="1" gradientUnits="objectBoundingBox">
      <stop offset="0%"   stop-color="#60a5fa"/>
      <stop offset="100%" stop-color="#38bdf8"/>
    </linearGradient>
  </defs>
  <path d="M50 6 C50 6 12 46 12 65 C12 83 29 94 50 94 C71 94 88 83 88 65 C88 46 50 6 50 6 Z"
        stroke="url(#ds)" stroke-width="4" fill="none" stroke-linejoin="round"/>
  <rect x="26" y="64" width="12" height="20" rx="3" fill="url(#b1)"/>
  <rect x="44" y="52" width="12" height="32" rx="3" fill="url(#b2)"/>
  <rect x="62" y="40" width="12" height="44" rx="3" fill="url(#b3)"/>
</svg>
